<?xml version="1.0" standalone="no"?>
<!DOCTYPE svg PUBLIC "-//W3C//DTD SVG 20010904//EN"
 "http://www.w3.org/TR/2001/REC-SVG-20010904/DTD/svg10.dtd">
<svg version="1.0" xmlns="http://www.w3.org/2000/svg"
 width="1983.000000pt" height="1983.000000pt" viewBox="0 0 1983.000000 1983.000000"
 preserveAspectRatio="xMidYMid meet">
<metadata>
Created by potrace 1.11, written by Peter Selinger 2001-2013
</metadata>
<g transform="translate(0.000000,1983.000000) scale(0.100000,-0.100000)"
fill="#000000" stroke="none">
<path d="M7137 19154 c-1 -1 -31 -5 -67 -8 -273 -28 -575 -155 -780 -328 -34
-29 -5675 -5664 -5849 -5843 -82 -85 -171 -196 -218 -275 -62 -102 -150 -309
-167 -393 -3 -12 -8 -33 -11 -47 -3 -14 -7 -36 -10 -50 -3 -14 -8 -36 -11 -50
-11 -44 -13 -373 -3 -435 15 -91 15 -94 38 -183 122 -474 495 -869 966 -1023
477 -157 994 -65 1390 246 44 35 1408 1392 3031 3017 2679 2680 2957 2962
3014 3048 34 52 82 134 106 183 40 78 99 236 109 289 2 11 6 27 9 36 3 9 7 33
10 52 3 19 8 46 12 60 13 54 12 356 -2 445 -65 426 -308 800 -669 1030 -69 44
-277 146 -284 140 -2 -3 -9 -1 -15 4 -6 6 -47 19 -91 31 -89 24 -92 25 -155
35 -25 3 -58 9 -75 12 -29 5 -273 12 -278 7z"/>
<path d="M11570 19084 c-53 -7 -116 -18 -140 -24 -25 -7 -55 -14 -67 -16 -103
-19 -380 -151 -474 -227 -15 -12 -42 -33 -61 -46 -18 -14 -1358 -1350 -2978
-2970 -2255 -2255 -2959 -2965 -3003 -3027 -127 -181 -223 -406 -254 -599 -3
-16 -8 -50 -13 -74 -12 -68 -9 -328 5 -416 62 -374 229 -671 520 -920 109 -93
312 -205 464 -255 169 -56 256 -70 446 -75 333 -7 626 84 899 279 69 50 516
491 2040 2013 1073 1072 2007 2001 2076 2065 148 138 161 150 359 338 84 80
169 155 189 167 94 58 217 3 240 -105 21 -93 13 -104 -338 -432 -79 -74 -183
-171 -230 -216 -47 -44 -118 -111 -159 -150 -40 -38 -90 -85 -111 -104 -32
-30 -168 -158 -330 -310 -25 -23 -105 -99 -178 -168 l-132 -125 0 -971 c1
-801 4 -987 16 -1061 53 -324 188 -590 415 -812 277 -273 639 -419 1024 -414
50 1 101 3 115 5 14 2 50 6 80 10 79 11 214 46 285 75 210 85 360 183 506 330
139 140 222 257 293 413 62 135 113 308 115 391 1 34 14 34 48 0 60 -59 161
-148 248 -218 28 -22 52 -42 55 -45 26 -28 286 -208 426 -296 115 -73 504
-274 529 -274 3 0 27 -9 53 -21 74 -33 81 -36 197 -78 61 -22 165 -55 230 -74
66 -20 127 -38 135 -41 8 -3 26 -7 40 -10 14 -2 66 -13 115 -25 50 -11 102
-22 118 -25 75 -14 146 -26 182 -31 23 -3 50 -7 61 -9 11 -2 54 -7 95 -11 41
-3 85 -8 99 -10 93 -14 477 -21 625 -11 130 9 220 17 250 21 17 3 52 7 79 10
76 9 271 44 371 66 50 12 99 22 109 25 10 2 76 20 145 40 293 84 624 221 884
366 98 54 319 188 327 198 3 4 28 21 55 40 54 36 231 170 279 210 117 99 237
209 330 304 138 140 308 338 298 347 -7 7 -740 442 -847 503 -11 6 -31 18 -45
27 -14 9 -106 63 -205 121 -99 58 -319 187 -490 288 -170 101 -327 193 -347
204 -21 12 -161 94 -313 183 l-275 163 -57 -37 c-83 -53 -266 -136 -355 -162
-164 -48 -271 -61 -458 -57 -132 3 -199 9 -270 25 -292 65 -521 190 -724 395
-128 130 -119 120 -185 217 -103 155 -193 369 -217 519 -2 14 -6 34 -9 46 -28
125 -23 373 10 534 119 578 581 1027 1170 1136 94 17 323 24 430 12 193 -21
401 -92 572 -193 28 -17 87 -69 130 -115 163 -175 331 -338 405 -393 42 -31
79 -57 82 -57 3 0 26 -13 52 -29 109 -70 350 -156 490 -176 23 -3 59 -8 80
-11 130 -18 391 2 534 42 159 45 361 140 462 218 14 12 41 32 60 46 62 46 204
194 259 270 260 355 345 796 238 1224 -24 95 -80 241 -122 316 -17 30 -37 69
-45 85 -30 60 -227 281 -397 445 -373 358 -830 660 -1295 855 -74 31 -144 61
-155 65 -82 37 -505 161 -626 184 -13 2 -62 11 -109 20 -47 9 -101 19 -120 22
-19 2 -44 6 -55 9 -11 2 -49 7 -85 10 -36 3 -78 8 -95 10 -189 26 -696 26
-894 0 -20 -3 -55 -7 -77 -9 -37 -5 -189 -28 -269 -42 -208 -36 -656 -165
-779 -225 -22 -10 -44 -19 -48 -19 -5 0 -39 -14 -76 -31 -37 -17 -107 -49
-157 -72 -49 -22 -97 -47 -106 -54 -8 -7 -19 -13 -23 -13 -5 0 -45 -21 -90
-46 -44 -26 -101 -58 -126 -72 -199 -112 -528 -358 -719 -538 l-65 -62 -33
121 c-36 130 -94 272 -150 364 -201 334 -509 573 -868 673 -73 20 -91 24 -190
41 -89 16 -297 17 -405 3z"/>
<path d="M18337 14364 c-1 -1 -45 -4 -97 -7 -385 -25 -716 -201 -975 -521 -22
-27 -64 -77 -92 -110 -29 -34 -53 -64 -53 -67 0 -7 30 -28 84 -58 19 -11 162
-95 318 -187 156 -92 297 -175 313 -184 28 -17 348 -205 590 -348 153 -90 276
-163 300 -176 33 -19 212 -124 345 -204 69 -41 145 -86 170 -100 25 -14 57
-33 72 -43 14 -11 29 -19 32 -19 3 0 47 -25 98 -56 121 -74 175 -104 185 -104
5 0 22 26 37 58 319 642 149 1391 -413 1822 -125 96 -282 177 -443 229 -99 33
-104 34 -198 51 -79 14 -265 30 -273 24z"/>
<path d="M14472 9797 c-112 -58 -289 -218 -405 -368 -37 -48 -67 -89 -67 -92
0 -3 -13 -25 -29 -49 -62 -94 -154 -289 -199 -423 -53 -157 -104 -377 -117
-500 -4 -33 -8 -71 -11 -85 -27 -165 -22 -560 12 -802 23 -170 23 -171 59
-317 67 -271 147 -467 260 -636 99 -148 148 -188 228 -188 105 0 179 72 179
173 0 56 -8 73 -80 165 -74 95 -193 351 -217 465 -2 8 -14 60 -28 115 -14 55
-28 123 -33 150 -4 28 -8 55 -9 60 -1 6 -6 35 -10 65 -4 30 -9 69 -11 85 -10
65 -12 495 -3 585 8 80 25 185 54 335 20 108 92 310 156 438 104 208 224 354
413 499 102 78 129 138 99 223 -36 104 -146 150 -241 102z"/>
<path d="M11640 9519 c-275 -34 -478 -111 -750 -286 -120 -78 -163 -117 -535
-485 -181 -179 -441 -436 -577 -570 -135 -134 -502 -495 -813 -803 -312 -308
-665 -657 -785 -775 -120 -118 -471 -465 -779 -770 -309 -305 -692 -683 -851
-840 -1506 -1487 -1654 -1634 -1704 -1694 -169 -205 -275 -442 -321 -721 -13
-79 -14 -372 -1 -425 3 -14 11 -52 17 -84 22 -125 92 -305 168 -441 71 -125
242 -323 346 -400 22 -17 46 -35 53 -42 14 -14 189 -123 197 -123 2 0 32 -13
65 -29 66 -32 217 -83 295 -100 276 -59 546 -46 810 40 175 57 361 163 498
283 76 67 111 101 1087 1066 344 340 720 712 837 826 269 266 1379 1362 1407
1390 12 12 28 25 38 30 22 12 123 109 176 170 65 73 316 325 685 687 181 177
336 335 344 351 17 32 110 126 126 126 5 0 87 76 181 170 94 93 241 239 326
323 85 85 209 211 275 281 66 71 135 142 153 160 72 67 139 137 192 196 30 35
82 92 115 127 33 35 80 85 105 112 25 26 52 52 60 57 9 5 41 45 72 89 l58 79
-4 376 c-2 221 -9 402 -15 440 -7 36 -14 79 -17 95 -8 49 -70 225 -103 295
-216 451 -656 766 -1141 816 -90 9 -225 10 -290 3z"/>
<path d="M15185 9459 c-376 -31 -656 -304 -805 -784 -23 -73 -57 -215 -64
-270 -4 -22 -8 -56 -11 -75 -18 -120 -22 -195 -22 -355 -1 -214 9 -323 48
-521 19 -101 77 -297 106 -364 96 -215 161 -317 278 -437 l61 -63 99 36 c94
33 191 58 280 72 56 8 351 8 400 0 75 -14 100 -19 140 -30 22 -5 41 -10 42 -9
9 3 173 -64 234 -94 356 -180 625 -515 723 -901 31 -123 40 -212 39 -374 -1
-118 -18 -244 -47 -345 -1 -5 -8 -30 -15 -55 -7 -25 -16 -49 -21 -55 -4 -5
-13 -27 -19 -47 -16 -49 -74 -158 -124 -233 -223 -334 -589 -561 -987 -612
-30 -4 -103 -7 -161 -8 -91 0 -110 3 -128 19 -19 18 -22 18 -39 3 -12 -11 -28
-15 -47 -11 -74 13 -127 26 -222 56 l-101 31 -40 -32 c-149 -117 -294 -343
-377 -586 -37 -107 -80 -278 -90 -360 -4 -27 -8 -52 -10 -55 -10 -17 -20 -215
-20 -390 1 -209 6 -283 31 -420 2 -14 7 -41 10 -60 20 -121 88 -330 144 -440
67 -134 73 -145 99 -180 48 -65 56 -74 121 -141 114 -117 246 -191 400 -223
60 -13 116 -15 280 -11 113 3 221 7 240 9 19 3 71 7 114 11 44 4 87 8 95 10
17 3 70 11 141 21 76 11 82 12 170 29 47 9 94 19 105 21 173 33 646 180 770
239 17 7 55 24 85 37 90 38 367 177 436 219 36 21 67 39 70 39 16 0 359 235
449 307 6 5 30 24 55 43 24 19 50 40 56 45 6 6 50 44 97 85 83 72 298 285 382
380 92 103 169 201 303 385 29 40 139 213 169 265 142 247 266 518 348 765 63
190 136 491 151 615 2 25 7 52 9 60 7 26 19 130 31 270 14 163 8 618 -10 720
-2 14 -7 54 -11 89 -6 68 -35 233 -59 346 -92 427 -269 860 -509 1250 -76 123
-270 396 -321 451 -6 7 -33 38 -61 70 -205 240 -463 480 -735 680 -73 54 -304
206 -355 234 -22 12 -62 35 -90 51 -52 30 -312 160 -399 199 -178 80 -545 206
-686 235 -8 2 -53 12 -100 24 -125 30 -233 51 -367 71 -107 17 -118 18 -203
25 -41 4 -86 9 -100 11 -14 2 -99 7 -190 10 -91 3 -169 6 -175 8 -5 1 -46 -1
-90 -5z"/>
<path d="M11769 5433 l-1429 -1427 1 -886 c1 -787 4 -956 22 -1050 21 -110 65
-244 115 -350 31 -66 106 -196 122 -210 3 -3 19 -25 35 -49 46 -68 212 -229
304 -295 139 -100 369 -206 499 -231 208 -40 397 -49 537 -25 39 7 79 13 90
15 11 2 40 8 65 15 554 149 962 598 1059 1165 17 104 18 213 19 2432 0 1278
-2 2323 -4 2323 -3 0 -648 -642 -1435 -1427z"/>
<path d="M14102 4263 c-35 -7 -93 -70 -130 -144 -19 -35 -44 -84 -57 -109 -26
-51 -95 -200 -95 -206 0 -2 -9 -23 -19 -47 -55 -121 -141 -393 -177 -562 -7
-31 -42 -236 -48 -277 -28 -188 -28 -555 -1 -718 2 -14 6 -47 10 -75 10 -83
64 -292 106 -408 72 -203 204 -438 338 -607 110 -138 336 -347 442 -409 93
-55 218 -8 254 94 30 89 -2 158 -108 236 -75 55 -269 244 -322 313 -40 52
-125 175 -125 181 0 2 -13 26 -28 52 -62 106 -148 324 -172 433 -13 56 -38
192 -44 230 -24 169 -25 464 -1 612 2 13 6 46 10 73 37 291 170 690 336 1003
63 120 75 165 55 222 -31 91 -115 134 -224 113z"/>
</g>
</svg>
